<?xml version="1.0"?>
<svg xmlns="http://www.w3.org/2000/svg" xmlns:xlink="http://www.w3.org/1999/xlink" version="1.1" viewBox="0 0 192 192" width="50px" height="50px"><g fill="none" fill-rule="nonzero" stroke="none" stroke-width="1" stroke-linecap="butt" stroke-linejoin="miter" stroke-miterlimit="10" stroke-dasharray="" stroke-dashoffset="0" font-family="none" font-weight="none" font-size="none" text-anchor="none" style="mix-blend-mode: normal"><path d="M0,192v-192h192v192z" fill="none"/><g fill="#ffffff"><g id="surface1"><path d="M96,19.2c-42.375,0 -76.8,34.425 -76.8,76.8c-0.015,1.38 0.705,2.67 1.905,3.375c1.2,0.69 2.67,0.69 3.87,0c1.2,-0.705 1.92,-1.995 1.905,-3.375c0,-38.22 30.9,-69.12 69.12,-69.12c23.985,0 45.03,12.21 57.435,30.72h-26.715c-1.38,-0.015 -2.67,0.705 -3.375,1.905c-0.69,1.2 -0.69,2.67 0,3.87c0.705,1.2 1.995,1.92 3.375,1.905h38.4v-38.4c0.015,-1.035 -0.39,-2.04 -1.125,-2.775c-0.735,-0.735 -1.74,-1.14 -2.775,-1.125c-2.115,0.045 -3.81,1.785 -3.78,3.9v23.085c-14.025,-18.675 -36.33,-30.765 -61.44,-30.765zM168.9,92.1c-2.115,0.045 -3.81,1.785 -3.78,3.9c0,38.22 -30.9,69.12 -69.12,69.12c-23.985,0 -45.045,-12.21 -57.435,-30.72h26.715c1.38,0.03 2.67,-0.705 3.375,-1.89c0.69,-1.2 0.69,-2.685 0,-3.885c-0.705,-1.185 -1.995,-1.92 -3.375,-1.905h-32.85c-0.495,-0.09 -0.99,-0.09 -1.485,0h-4.065v38.4c-0.015,1.38 0.705,2.67 1.905,3.375c1.2,0.69 2.67,0.69 3.87,0c1.2,-0.705 1.92,-1.995 1.905,-3.375v-23.1c14.01,18.675 36.33,30.78 61.44,30.78c42.375,0 76.8,-34.425 76.8,-76.8c0.015,-1.035 -0.39,-2.04 -1.125,-2.775c-0.735,-0.735 -1.74,-1.14 -2.775,-1.125z"/></g></g></g></svg>
